<svg width="70" height="70" viewBox="0 0 70 70" fill="none" xmlns="http://www.w3.org/2000/svg">
<rect width="70" height="70" rx="10" fill="#F53B49" fill-opacity="0.1"/>
<g clip-path="url(#clip0)">
<path fill-rule="evenodd" clip-rule="evenodd" d="M53.9214 30.653L52.2542 35.0013L53.9214 39.3497C54.1042 39.8294 53.9617 40.3708 53.5604 40.6962L49.9459 43.6244L49.2144 48.2244C49.1337 48.7326 48.7347 49.1316 48.2265 49.2124L43.6264 49.9438L40.6983 53.5583C40.4679 53.8457 40.1236 54 39.7745 54C39.6296 54 39.4871 53.9739 39.3494 53.9217L35.001 52.2545L30.6551 53.9193C30.1754 54.1045 29.6315 53.962 29.3062 53.5583L26.3756 49.9438L21.7756 49.2124C21.2674 49.1316 20.8708 48.7326 20.79 48.2244L20.0586 43.6244L16.4417 40.6962C16.0427 40.3732 15.8955 39.8294 16.0807 39.3497L17.7478 35.0013L16.0807 30.653C15.8978 30.1733 16.0427 29.6295 16.4417 29.3065L20.0586 26.3759L20.79 21.7759C20.8708 21.27 21.2697 20.871 21.7756 20.7903L26.3756 20.0589L29.3062 16.442C29.6315 16.043 30.1706 15.8958 30.6527 16.081L35.001 17.7481L39.3517 16.0786C39.8196 15.8958 40.3753 16.0383 40.6983 16.4396L43.6264 20.0565L48.2265 20.7879C48.7347 20.8687 49.1337 21.2653 49.2144 21.7735L49.9459 26.3735L53.5604 29.3041C53.9617 29.6295 54.1042 30.1733 53.9214 30.653ZM27.876 29.0647C27.876 31.0287 29.4742 32.627 31.4382 32.627C33.4022 32.627 35.0005 31.0287 35.0005 29.0647C35.0005 27.1008 33.4022 25.5025 31.4382 25.5025C29.4742 25.5025 27.876 27.1008 27.876 29.0647ZM30.2508 29.0647C30.2508 28.4093 30.7828 27.8773 31.4382 27.8773C32.0937 27.8773 32.6257 28.4093 32.6257 29.0647C32.6257 29.7202 32.0937 30.2522 31.4382 30.2522C30.7828 30.2522 30.2508 29.7202 30.2508 29.0647ZM38.5627 44.5004C36.5988 44.5004 35.0005 42.9022 35.0005 40.9382C35.0005 38.9742 36.5988 37.3759 38.5627 37.3759C40.5267 37.3759 42.125 38.9742 42.125 40.9382C42.125 42.9022 40.5267 44.5004 38.5627 44.5004ZM38.5627 39.7507C37.9097 39.7507 37.3753 40.2851 37.3753 40.9382C37.3753 41.5912 37.9097 42.1256 38.5627 42.1256C39.2158 42.1256 39.7502 41.5912 39.7502 40.9382C39.7502 40.2851 39.2158 39.7507 38.5627 39.7507ZM28.3758 44.2796C28.5848 44.4293 28.8246 44.5005 29.0645 44.5005C29.435 44.5005 29.7983 44.3271 30.0334 44.0018L41.9076 27.3779C42.2876 26.846 42.1665 26.1026 41.6321 25.7227C41.0978 25.3403 40.3568 25.4638 39.9745 25.9981L28.1003 42.622C27.718 43.1563 27.8414 43.8973 28.3758 44.2796Z" fill="#F53B49"/>
</g>
<defs>
<clipPath id="clip0">
<rect width="38" height="38" fill="white" transform="translate(16 16)"/>
</clipPath>
</defs>
</svg>
