<svg width="70" height="70" viewBox="0 0 70 70" fill="none" xmlns="http://www.w3.org/2000/svg">
<rect width="70" height="70" rx="10" fill="#63A6DD" fill-opacity="0.1"/>
<path fill-rule="evenodd" clip-rule="evenodd" d="M16 51.625C16 52.936 17.064 54 18.375 54H51.625C52.936 54 54 52.936 54 51.625V23.125H39.75V32.625L37.375 30.25L35 32.625L32.625 30.25L30.25 32.625V23.125H16V51.625ZM21.9375 42.125H29.0625C29.718 42.125 30.25 42.657 30.25 43.3125C30.25 43.968 29.718 44.5 29.0625 44.5H21.9375C21.282 44.5 20.75 43.968 20.75 43.3125C20.75 42.657 21.282 42.125 21.9375 42.125ZM25.5 46.875H21.9375C21.282 46.875 20.75 47.407 20.75 48.0625C20.75 48.718 21.282 49.25 21.9375 49.25H25.5C26.1555 49.25 26.6875 48.718 26.6875 48.0625C26.6875 47.407 26.1555 46.875 25.5 46.875Z" fill="#63A6DD"/>
<path fill-rule="evenodd" clip-rule="evenodd" d="M39.75 23.125H54L46.3549 16.5724C45.925 16.2019 45.3764 16 44.8088 16H37.375L39.75 23.125ZM30.25 23.125L32.625 16H25.1912C24.6236 16 24.075 16.2019 23.6451 16.5724L16 23.125H30.25Z" fill="#63A6DD"/>
</svg>
