<svg width="70" height="70" viewBox="0 0 70 70" fill="none" xmlns="http://www.w3.org/2000/svg">
<rect width="70" height="70" rx="10" fill="#4CAF50" fill-opacity="0.1"/>
<path fill-rule="evenodd" clip-rule="evenodd" d="M29.0625 21.9375H51.625C52.936 21.9375 54 23.0039 54 24.3125V45.6875C54 46.9985 52.936 48.0625 51.625 48.0625H29.0625C28.7466 48.0625 28.445 47.9366 28.2218 47.7134L26.6875 46.1791L25.1532 47.7157C24.93 47.9366 24.6284 48.0625 24.3125 48.0625H18.375C17.0664 48.0625 16 46.9985 16 45.6875V24.3125C16 23.0039 17.0664 21.9375 18.375 21.9375H24.3125C24.6284 21.9375 24.93 22.0634 25.1532 22.2842L26.6875 23.8209L28.2218 22.2842C28.445 22.0634 28.7466 21.9375 29.0625 21.9375ZM32.625 30.25C32.625 32.2141 34.2234 33.8125 36.1875 33.8125C38.1516 33.8125 39.75 32.2141 39.75 30.25C39.75 28.2859 38.1516 26.6875 36.1875 26.6875C34.2234 26.6875 32.625 28.2859 32.625 30.25ZM35 30.25C35 29.5945 35.532 29.0625 36.1875 29.0625C36.843 29.0625 37.375 29.5945 37.375 30.25C37.375 30.9055 36.843 31.4375 36.1875 31.4375C35.532 31.4375 35 30.9055 35 30.25ZM43.3125 43.3125C41.3484 43.3125 39.75 41.7141 39.75 39.75C39.75 37.7859 41.3484 36.1875 43.3125 36.1875C45.2766 36.1875 46.875 37.7859 46.875 39.75C46.875 41.7141 45.2766 43.3125 43.3125 43.3125ZM43.3125 38.5625C42.6594 38.5625 42.125 39.0969 42.125 39.75C42.125 40.4031 42.6594 40.9375 43.3125 40.9375C43.9656 40.9375 44.5 40.4031 44.5 39.75C44.5 39.0969 43.9656 38.5625 43.3125 38.5625ZM33.0525 43.0369C33.2757 43.2221 33.5441 43.3124 33.8125 43.3124C34.1521 43.3124 34.4894 43.1651 34.7221 42.8873L46.5971 28.6373C47.0175 28.1314 46.951 27.3833 46.4475 26.9629C45.9464 26.5473 45.1982 26.609 44.7755 27.1149L32.9005 41.3649C32.4801 41.8684 32.549 42.6165 33.0525 43.0369ZM25.5 26.6875V29.0625H27.875V26.6875H25.5ZM25.5 43.3125V40.9375H27.875V43.3125H25.5ZM25.5 36.1875V38.5625H27.875V36.1875H25.5ZM25.5 33.8125V31.4375H27.875V33.8125H25.5Z" fill="#4CAF50"/>
</svg>
