<svg width="70" height="70" viewBox="0 0 70 70" fill="none" xmlns="http://www.w3.org/2000/svg">
<rect width="70" height="70" rx="10" fill="#FFC107" fill-opacity="0.1"/>
<path d="M53.8425 46.2812L46.6463 33.791C46.4824 33.5084 46.2093 33.3042 45.8934 33.2282C45.5775 33.1522 45.2427 33.2092 44.9672 33.3873L34.9922 39.8948C34.4649 40.2415 34.2987 40.9374 34.6122 41.4837L41.4997 53.4061C41.7134 53.7766 42.1077 53.9999 42.528 53.9999C42.5779 53.9999 42.6325 53.9975 42.6824 53.9904C43.1598 53.9263 43.5493 53.5819 43.6752 53.1188L45.53 46.1458L52.503 48.0197C52.9685 48.1479 53.4578 47.9769 53.7523 47.5969C54.0468 47.2193 54.08 46.6992 53.8425 46.2812Z" fill="#FFC107"/>
<path d="M35.0062 39.8973L25.0312 33.3898C24.7581 33.2093 24.4185 33.1499 24.105 33.2307C23.7891 33.3043 23.516 33.5086 23.3545 33.7912L16.1582 46.2813C15.9184 46.6993 15.954 47.2194 16.2461 47.5994C16.5382 47.9794 17.0299 48.1504 17.4954 48.0222L24.4684 46.1483L26.3232 53.1213C26.4467 53.5844 26.8386 53.9288 27.3136 53.9929C27.3659 53.9977 27.4205 54.0001 27.4704 54.0001C27.8907 54.0001 28.285 53.7768 28.4987 53.4063L35.3862 41.4838C35.7021 40.9399 35.5359 40.2417 35.0062 39.8973Z" fill="#FFC107"/>
<path fill-rule="evenodd" clip-rule="evenodd" d="M48.062 29.0625C48.062 36.2767 42.2137 42.125 34.9995 42.125C27.7853 42.125 21.937 36.2767 21.937 29.0625C21.937 21.8483 27.7853 16 34.9995 16C42.2137 16 48.062 21.8483 48.062 29.0625ZM41.2386 25.3244C41.6258 25.4265 41.9369 25.7163 42.0651 26.0987C42.191 26.481 42.115 26.899 41.8633 27.2149L39.607 30.0412L39.854 33.7343C39.8825 34.1452 39.6949 34.5418 39.3552 34.7817C39.151 34.9265 38.9135 35.0002 38.6689 35.0002C38.5121 35.0002 38.353 34.9693 38.2057 34.9052L34.9995 33.5443L31.7956 34.9052C31.4156 35.0667 30.981 35.0215 30.6437 34.7817C30.3065 34.5418 30.1189 34.1452 30.145 33.7343L30.3896 30.0412L28.1334 27.2149C27.8816 26.899 27.8056 26.481 27.9339 26.0987C28.0621 25.7163 28.3709 25.4265 28.7627 25.3244L32.1329 24.4433L33.9806 21.332C34.4057 20.61 35.5932 20.61 36.0207 21.332L37.8685 24.4433L41.2386 25.3244Z" fill="#FFC107"/>
</svg>
