<svg width="70" height="70" viewBox="0 0 70 70" fill="none" xmlns="http://www.w3.org/2000/svg">
<rect width="70" height="70" rx="10" fill="#4CAF50" fill-opacity="0.1"/>
<g clip-path="url(#clip0)">
<path d="M34.9359 46.7088C30.0339 44.0036 25.9774 39.9732 23.2675 35.076C23.2675 35.076 25.1176 33.9621 26.659 32.8934C27.5734 32.2616 27.8418 31.0717 27.4048 30.0505C26.431 27.7752 25.7993 25.3219 25.5831 22.7474C25.4881 21.6026 24.474 20.75 23.3221 20.75H17.1875C16.5439 20.75 16 21.2773 16 21.9209C15.9905 39.6122 30.3878 54.0095 48.0791 54C48.7228 54 49.25 53.4561 49.25 52.8125V46.6779C49.25 45.5284 48.3974 44.5142 47.2503 44.4169C44.6781 44.2008 42.2248 43.569 39.9519 42.5952C38.9306 42.1583 37.7431 42.4266 37.1114 43.341C36.045 44.8752 34.9359 46.7088 34.9359 46.7088Z" fill="#4CAF50"/>
<path d="M42.125 16C35.5771 16 30.25 20.2607 30.25 25.5C30.25 27.9676 31.3829 30.2405 33.4562 31.9742L32.6488 35.95C32.5561 36.406 32.7366 36.8715 33.1119 37.1446C33.3185 37.2966 33.5655 37.375 33.8125 37.375C34.0096 37.375 34.2091 37.3251 34.3873 37.2254L39.0066 34.6651C40.0303 34.8884 41.0776 35 42.125 35C48.6729 35 54 30.7393 54 25.5C54 20.2607 48.6729 16 42.125 16Z" fill="#4CAF50"/>
</g>
<defs>
<clipPath id="clip0">
<rect width="38" height="38" fill="white" transform="translate(16 16)"/>
</clipPath>
</defs>
</svg>
