<svg width="24" height="24" viewBox="0 0 24 24" fill="none" xmlns="http://www.w3.org/2000/svg">
<g clip-path="url(#clip0)">
<path d="M18.3389 25.7638H0.440643C-0.905341 25.7638 -2 24.6691 -2 23.3231V7.05197C-2 5.70593 -0.905341 4.61133 0.440643 4.61133H18.3389C19.6849 4.61133 20.7795 5.70599 20.7795 7.05197V23.3231C20.7796 24.6691 19.6849 25.7638 18.3389 25.7638ZM1.25421 22.5095H17.5253V7.86554H1.25421V22.5095Z" fill="white"/>
<path d="M9.7973 20.8819C9.20502 20.8819 8.64041 20.6236 8.25277 20.1717L3.37143 14.4768C2.64047 13.6238 2.73928 12.34 3.59229 11.609C4.44491 10.8773 5.72866 10.9761 6.46049 11.8295L9.65165 15.5523L19.7373 3.39044C21.2986 1.20361 22.9326 2.41458 21.3645 4.61076L11.4521 20.0301C11.0884 20.539 10.5112 20.8522 9.88682 20.8799C9.85667 20.8811 9.82701 20.8819 9.7973 20.8819Z" fill="#63A6DD"/>
</g>
<defs>
<clipPath id="clip0">
<rect width="24" height="24" fill="white"/>
</clipPath>
</defs>
</svg>
