<svg width="24" height="24" viewBox="0 0 24 24" fill="none" xmlns="http://www.w3.org/2000/svg">
<g clip-path="url(#clip0)">
<path d="M16.2658 24C15.2144 24 14.2004 23.4134 13.712 22.4157L12.2985 19.769L11.4966 21.2996C11.476 21.3389 11.4526 21.3767 11.4268 21.4126C10.9005 22.143 10.0346 22.4025 9.39355 22.4025C9.38839 22.4025 9.38323 22.4025 9.37803 22.4025C8.66158 22.3977 7.94819 22.0903 7.42088 21.5589C6.87324 21.0071 6.57169 20.2746 6.57169 19.4962V7.3576C6.57169 6.25045 7.19551 5.273 8.19963 4.80668C9.19423 4.34477 10.3313 4.49159 11.1748 5.18867L17.3505 9.78767C17.7657 10.0969 17.8517 10.6843 17.5425 11.0995C17.2332 11.5148 16.6459 11.6007 16.2306 11.2915L10.0341 6.67697C10.0188 6.66553 10.0038 6.65367 9.98914 6.64129C9.56506 6.28317 9.11679 6.44817 8.98938 6.50728C8.86207 6.56639 8.44675 6.80241 8.44675 7.3576V19.4962C8.44675 20.1003 8.94406 20.5246 9.39045 20.5275C9.39186 20.5275 9.39336 20.5275 9.39476 20.5275C9.5772 20.5275 9.77778 20.4519 9.87772 20.3495L11.4601 17.3289C11.6213 17.0212 11.9395 16.8278 12.2868 16.8264C12.2881 16.8264 12.2894 16.8264 12.2906 16.8264C12.6365 16.8264 12.9545 17.0169 13.1176 17.3223L15.3747 21.5483C15.381 21.5603 15.3871 21.5723 15.3929 21.5845C15.6179 22.0533 16.185 22.2573 16.657 22.0389C16.892 21.9302 17.0693 21.7361 17.1563 21.4924C17.2407 21.2561 17.2299 21.0022 17.1263 20.7747L14.8483 16.7211C14.6852 16.4308 14.6883 16.0758 14.8565 15.7884C15.0246 15.501 15.3326 15.3244 15.6656 15.3244H18.8798C19.4237 15.2966 19.6409 14.8682 19.6948 14.7366C19.7501 14.6016 19.9004 14.1292 19.5122 13.7175C19.157 13.3407 19.1744 12.7474 19.5511 12.3922C19.9279 12.037 20.5212 12.0545 20.8764 12.4312C21.6456 13.2471 21.8578 14.4027 21.4299 15.4473C21.0045 16.486 20.0485 17.1572 18.935 17.1987C18.9234 17.1992 18.9117 17.1994 18.9 17.1994H17.2679L18.7771 19.885C18.7863 19.9015 18.7951 19.9183 18.8034 19.9353C19.1376 20.6246 19.1798 21.4016 18.9221 22.1231C18.6644 22.8446 18.1396 23.4191 17.4442 23.7407C17.0634 23.9166 16.6619 23.9999 16.2658 24ZM7.63173 3.68167C8.08577 3.43272 8.25194 2.86285 8.00298 2.40886L7.2061 0.955724C6.95715 0.501735 6.38737 0.335561 5.93334 0.584517C5.4793 0.833472 5.31313 1.40334 5.56209 1.85733L6.35897 3.31047C6.5295 3.62144 6.8505 3.79736 7.18182 3.79736C7.33417 3.79736 7.48876 3.76014 7.63173 3.68167ZM5.64923 5.81362C5.85674 5.33924 5.64041 4.78643 5.16608 4.57892L3.66607 3.92266C3.19169 3.71509 2.63893 3.93147 2.43137 4.4058C2.22385 4.88018 2.44018 5.43299 2.91451 5.6405L4.41453 6.29676C4.53683 6.35029 4.66433 6.37561 4.78981 6.37561C5.15099 6.37556 5.49519 6.16565 5.64923 5.81362ZM11.4923 2.78115L12.0079 1.23426C12.1717 0.74305 11.9062 0.212091 11.415 0.0484022C10.924 -0.115428 10.3928 0.150122 10.2291 0.64133L9.71352 2.18822C9.54978 2.67943 9.81524 3.21039 10.3064 3.37408C10.4048 3.40689 10.5047 3.42245 10.603 3.42245C10.9955 3.42245 11.3614 3.17396 11.4923 2.78115ZM13.9734 5.15994L15.2391 4.22243C15.6551 3.91422 15.7425 3.32711 15.4344 2.91104C15.1262 2.49497 14.539 2.40755 14.123 2.71571L12.8574 3.65322C12.4413 3.96143 12.3539 4.54854 12.662 4.96461C12.846 5.21291 13.1292 5.34416 13.4161 5.34416C13.61 5.34416 13.8057 5.2842 13.9734 5.15994ZM3.73225 10.4333L5.13852 9.87083C5.61927 9.67854 5.85309 9.13291 5.6608 8.65221C5.46848 8.1714 4.9228 7.93759 4.44218 8.12992L3.03592 8.69242C2.55516 8.88471 2.32135 9.43034 2.51363 9.91105C2.66026 10.2776 3.01229 10.5006 3.38434 10.5006C3.50027 10.5006 3.61807 10.479 3.73225 10.4333Z" fill="#959595"/>
</g>
<defs>
<clipPath id="clip0">
<rect width="24" height="24" fill="white"/>
</clipPath>
</defs>
</svg>
