<svg width="10" height="6" viewBox="0 0 10 6" fill="none" xmlns="http://www.w3.org/2000/svg">
<path d="M4.67806 5.38262L0.17806 1.38263C0.0787153 1.29504 0.0181818 1.17161 0.00974557 1.03944C0.00130842 0.907263 0.0456581 0.777141 0.133059 0.677631C0.22065 0.578287 0.344078 0.517753 0.476253 0.509317C0.608427 0.50088 0.738549 0.545229 0.838059 0.632631L5.00806 4.33762L9.17806 0.632631C9.2784 0.551816 9.40606 0.51285 9.53442 0.523858C9.66278 0.534865 9.78194 0.594997 9.86706 0.691715C9.95217 0.788433 9.99666 0.914272 9.99126 1.04299C9.98586 1.17171 9.93098 1.29338 9.83806 1.38263L5.33806 5.38262C5.24681 5.46278 5.12951 5.50699 5.00806 5.50699C4.88661 5.50699 4.7693 5.46278 4.67806 5.38262Z" fill="black"/>
</svg>
