<svg width="70" height="70" viewBox="0 0 70 70" fill="none" xmlns="http://www.w3.org/2000/svg">
<rect width="70" height="70" rx="10" fill="#FFC107" fill-opacity="0.1"/>
<path fill-rule="evenodd" clip-rule="evenodd" d="M50.2689 34.3896L53.8314 40.3271C53.943 40.51 54 40.7214 54 40.9375V46.875C54 47.5305 53.468 48.0625 52.8125 48.0625H40.9375C40.282 48.0625 39.75 47.5305 39.75 46.875V35C39.75 34.3445 40.282 33.8125 40.9375 33.8125H49.25C49.668 33.8125 50.0551 34.031 50.2689 34.3896ZM48.5779 36.1875H44.5V40.9375H51.4279L48.5779 36.1875Z" fill="#FFC107"/>
<path d="M48.0625 49.25C49.3742 49.25 50.4375 48.1867 50.4375 46.875C50.4375 45.5633 49.3742 44.5 48.0625 44.5C46.7508 44.5 45.6875 45.5633 45.6875 46.875C45.6875 48.1867 46.7508 49.25 48.0625 49.25Z" fill="#FFF9E6"/>
<path d="M48.0625 50.4375C46.0984 50.4375 44.5 48.8391 44.5 46.875C44.5 44.9109 46.0984 43.3125 48.0625 43.3125C50.0266 43.3125 51.625 44.9109 51.625 46.875C51.625 48.8391 50.0266 50.4375 48.0625 50.4375ZM48.0625 45.6875C47.4094 45.6875 46.875 46.2219 46.875 46.875C46.875 47.5281 47.4094 48.0625 48.0625 48.0625C48.7156 48.0625 49.25 47.5281 49.25 46.875C49.25 46.2219 48.7156 45.6875 48.0625 45.6875Z" fill="#FFC107"/>
<path d="M42.125 48.0625H19.5625C18.907 48.0625 18.375 47.5305 18.375 46.875V43.3125H42.125V48.0625Z" fill="#FFC107"/>
<path fill-rule="evenodd" clip-rule="evenodd" d="M34.8789 29.0625H40.9375C41.593 29.0625 42.125 29.5945 42.125 30.25V48.0625H19.5625C18.907 48.0625 18.375 47.5305 18.375 46.875V36.7527C20.0755 37.8927 22.1156 38.5625 24.3125 38.5625C29.7987 38.5625 34.2804 34.392 34.8789 29.0625Z" fill="#FFC107"/>
<path fill-rule="evenodd" clip-rule="evenodd" d="M32.625 27.875C32.625 32.4659 28.9034 36.1875 24.3125 36.1875C19.7216 36.1875 16 32.4659 16 27.875C16 23.2841 19.7216 19.5625 24.3125 19.5625C28.9034 19.5625 32.625 23.2841 32.625 27.875ZM25.8468 31.0907C26.0795 31.3211 26.3835 31.4375 26.6875 31.4375C26.9915 31.4375 27.2955 31.3211 27.5283 31.0907C27.9914 30.6276 27.9914 29.8747 27.5283 29.4116L25.5 27.3834V24.3125C25.5 23.657 24.968 23.125 24.3125 23.125C23.657 23.125 23.125 23.657 23.125 24.3125V27.875C23.125 28.1909 23.2509 28.4925 23.4717 28.7157L25.8468 31.0907Z" fill="#FFC107"/>
<path d="M26.5625 49.25C27.8742 49.25 28.9375 48.1867 28.9375 46.875C28.9375 45.5633 27.8742 44.5 26.5625 44.5C25.2508 44.5 24.1875 45.5633 24.1875 46.875C24.1875 48.1867 25.2508 49.25 26.5625 49.25Z" fill="#FFF9E6"/>
<path d="M26.5625 50.4375C24.5984 50.4375 23 48.8391 23 46.875C23 44.9109 24.5984 43.3125 26.5625 43.3125C28.5266 43.3125 30.125 44.9109 30.125 46.875C30.125 48.8391 28.5266 50.4375 26.5625 50.4375ZM26.5625 45.6875C25.9094 45.6875 25.375 46.2219 25.375 46.875C25.375 47.5281 25.9094 48.0625 26.5625 48.0625C27.2156 48.0625 27.75 47.5281 27.75 46.875C27.75 46.2219 27.2156 45.6875 26.5625 45.6875Z" fill="#FFC107"/>
</svg>
