<svg width="70" height="70" viewBox="0 0 70 70" fill="none" xmlns="http://www.w3.org/2000/svg">
<rect width="70" height="70" rx="10" fill="#F53B49" fill-opacity="0.1"/>
<g clip-path="url(#clip0)">
<path d="M53.5746 49.5269C50.4231 46.886 49.3853 36.401 49.25 32.5822C49.2262 31.9433 48.7037 31.4375 48.0625 31.4375H21.939C21.3001 31.4375 20.7753 31.9433 20.7515 32.5822C20.6161 36.3986 19.576 46.8837 16.4245 49.5269C16.0421 49.8475 15.8997 50.3723 16.073 50.8426C16.244 51.3104 16.6905 51.6239 17.1892 51.6239H52.8123C53.311 51.6239 53.7575 51.3104 53.9284 50.8426C54.0994 50.3747 53.9569 49.8475 53.5746 49.5269Z" fill="#F53B49"/>
<path d="M22.3571 30.5397C21.837 30.345 21.3122 30.25 20.7517 30.25C18.1322 30.25 16.002 32.3803 16.002 34.9997C16.002 37.6192 18.1322 39.7495 20.7517 39.7495C21.3074 39.7495 21.8323 39.6545 22.3524 39.4621C22.8178 39.2888 23.1266 38.8447 23.1266 38.3483V31.6512C23.1266 31.1548 22.8202 30.7131 22.3571 30.5397Z" fill="#F53B49"/>
<path d="M49.2504 30.25C48.6899 30.25 48.165 30.345 47.6449 30.5397C47.1818 30.7131 46.8755 31.1548 46.8755 31.6512V38.3483C46.8755 38.8447 47.1842 39.2888 47.6497 39.4621C48.1698 39.6545 48.6946 39.7495 49.2504 39.7495C51.8698 39.7495 54.0001 37.6192 54.0001 34.9997C54.0001 32.3803 51.8698 30.25 49.2504 30.25Z" fill="#F53B49"/>
<path d="M49.2499 30.2502V31.2001C43.6215 30.6064 38.278 28.944 36.1881 27.4004C33.8607 29.3477 29.3485 31.4376 20.7515 31.4376V30.2502C20.7515 22.3894 27.1399 16.001 35.0007 16.001C42.8615 16.001 49.2499 22.3894 49.2499 30.2502Z" fill="#F53B49"/>
<path d="M49.2499 31.2002V39.7497C49.2499 47.6105 42.8615 53.9989 35.0007 53.9989C27.1399 53.9989 20.7515 47.6105 20.7515 39.7497V31.4377C29.3485 31.4377 33.8607 29.3478 36.1881 27.4004C38.278 28.9441 43.6215 30.6065 49.2499 31.2002Z" fill="#FEEBED"/>
<path d="M43.3132 38.5622C42.6577 38.5622 42.1257 38.0303 42.1257 37.3748C42.1257 36.7193 41.5914 36.1874 40.9383 36.1874C40.2852 36.1874 39.7508 36.7193 39.7508 37.3748C39.7508 38.0303 39.2189 38.5622 38.5634 38.5622C37.9079 38.5622 37.376 38.0303 37.376 37.3748C37.376 35.4108 38.9743 33.8125 40.9383 33.8125C42.9023 33.8125 44.5006 35.4108 44.5006 37.3748C44.5006 38.0303 43.9686 38.5622 43.3132 38.5622Z" fill="#F53B49"/>
<path d="M31.4386 38.5622C30.7832 38.5622 30.2512 38.0303 30.2512 37.3748C30.2512 36.7193 29.7192 36.1874 29.0638 36.1874C28.4083 36.1874 27.8763 36.7193 27.8763 37.3748C27.8763 38.0303 27.3444 38.5622 26.6889 38.5622C26.0334 38.5622 25.5015 38.0303 25.5015 37.3748C25.5015 35.4108 27.0998 33.8125 29.0638 33.8125C31.0278 33.8125 32.6261 35.4108 32.6261 37.3748C32.6261 38.0303 32.0941 38.5622 31.4386 38.5622Z" fill="#F53B49"/>
<path d="M47.8206 46.8739H37.3759C36.7204 46.8739 36.1885 46.3419 36.1885 45.6865C36.1885 45.031 36.7204 44.499 37.3759 44.499H47.8206C48.4761 44.499 49.008 45.031 49.008 45.6865C49.008 46.3419 48.4784 46.8739 47.8206 46.8739Z" fill="#F53B49"/>
<path d="M35.0008 49.2496C36.9682 49.2496 38.5631 47.6547 38.5631 45.6873C38.5631 43.7199 36.9682 42.125 35.0008 42.125C33.0334 42.125 31.4385 43.7199 31.4385 45.6873C31.4385 47.6547 33.0334 49.2496 35.0008 49.2496Z" fill="#F53B49"/>
</g>
<defs>
<clipPath id="clip0">
<rect width="38" height="38" fill="white" transform="translate(16 16)"/>
</clipPath>
</defs>
</svg>
